#!OML:ASF F:\VICON\USERDATA\INSTALL\rory3\rory3.ASF
:FULLY-SPECIFIED
:DEGREES
380
root 14.5214 17.8997 11.6522 111.874 84.204 117.814
lowerback 11.7105 1.19384 -4.54191
upperback 1.6362 1.04687 -0.699239
thorax -4.9175 0.624524 1.66023
lowerneck -19.0854 -5.2601 -11.4296
upperneck 31.1437 -5.27728 6.47886
head 14.432 -2.51645 3.71983
rclavicle -2.41026e-015 1.94809e-014
rhumerus -33.0474 -17.1819 -80.1331
rradius 28.9345
rwrist 7.85189
rhand -19.1258 9.84189
rfingers 7.12502
rthumb 7.18372 -20.0162
lclavicle -2.41026e-015 1.94809e-014
lhumerus -32.0509 3.2038 83.9135
lradius 30.8085
lwrist -7.25352
lhand -17.695 26.0443
lfingers 7.12502
lthumb 8.56465 55.8506
rfemur -18.9189 -7.03852 12.4961
rtibia 69.0842
rfoot -1.53125 -2.07827
rtoes 6.12583
lfemur 1.45862 -0.256471 -28.9713
ltibia 15.4635
lfoot -7.15254 -8.63902
ltoes 0.785111
381
root 14.6506 17.8865 11.6442 112.838 84.0831 118.752
lowerback 11.7075 1.10325 -4.59167
upperback 1.62896 0.919973 -0.707086
thorax -4.91598 0.562946 1.70029
lowerneck -19.1612 -5.20731 -11.2875
upperneck 31.1402 -5.22428 6.42182
head 14.4327 -2.48421 3.68057
rclavicle -9.23106e-015 -1.70955e-014
rhumerus -33.4673 -17.7603 -79.7813
rradius 28.653
rwrist 7.61994
rhand -18.3405 9.9499
rfingers 7.12502
rthumb 7.94174 -19.8809
lclavicle -9.23106e-015 -1.70955e-014
lhumerus -31.6362 2.63102 83.9946
lradius 31.15
lwrist -6.52346
lhand -17.5168 25.7654
lfingers 7.12502
lthumb 8.73663 55.5645
rfemur -19.7364 -7.14066 12.5121
rtibia 68.1707
rfoot -2.81403 -2.11028
rtoes 6.17289
lfemur 1.5946 -0.199797 -29.0423
ltibia 16.0777
lfoot -7.88979 -8.66365
ltoes 2.72002
382
root 14.7816 17.8676 11.6388 114.136 83.9484 120.086
lowerback 11.7206 0.993875 -4.73225
upperback 1.66402 0.761306 -0.650757
thorax -4.87855 0.486864 1.86396
lowerneck -19.2577 -5.15333 -11.2251
upperneck 31.1504 -5.14423 6.38011
head 14.4449 -2.44786 3.66679
rclavicle 5.85172e-015 -9.93923e-015
rhumerus -33.8714 -18.2249 -79.3615
rradius 28.4426
rwrist 7.45061
rhand -17.1619 9.80291
rfingers 7.12502
rthumb 9.07916 -19.9817
lclavicle 5.85172e-015 -9.93923e-015
lhumerus -31.194 2.51813 83.9895
lradius 31.4042
lwrist -6.2114
lhand -17.7494 25.8214
lfingers 7.12502
lthumb 8.51223 55.6298
rfemur -20.3767 -7.38413 12.5561
rtibia 67.103
rfoot -3.9924 -2.53653
rtoes 5.50908
lfemur 1.88431 -0.394464 -29.1339
ltibia 16.5724
lfoot -8.43894 -8.54924
ltoes 5.94372
383
root 14.9107 17.8477 11.6352 114.82 83.8579 120.714
lowerback 11.6986 0.879273 -4.87697
upperback 1.64807 0.593831 -0.592567
thorax -4.87365 0.40712 2.03325
lowerneck -19.324 -5.126 -11.3397
upperneck 31.1404 -5.09091 6.47295
head 14.4562 -2.42649 3.73432
rclavicle -8.29926e-015 5.1684e-015
rhumerus -34.1976 -18.1425 -79.2199
rradius 28.1308
rwrist 7.42895
rhand -17.1748 9.49889
rfingers 7.12502
rthumb 9.06663 -20.2862
lclavicle -8.29926e-015 5.1684e-015
lhumerus -30.8426 2.59417 83.9334
lradius 31.6824
lwrist -6.18212
lhand -17.8036 25.8641
lfingers 7.12502
lthumb 8.45986 55.6746
rfemur -21.0557 -7.45714 12.6572
rtibia 65.8599
rfoot -5.14389 -3.12349
rtoes 5.0419
lfemur 2.09342 -0.529447 -29.1983
ltibia 17.0155
lfoot -8.8725 -8.48729
ltoes 7.01672
384
root 15.041 17.8293 11.6334 114.37 83.5622 120.17
lowerback 11.6867 0.829693 -5.228
upperback 1.58803 0.478728 -0.658038
thorax -4.92415 0.358325 2.18011
lowerneck -19.3148 -5.08748 -11.2242
upperneck 31.0703 -5.0823 6.48049
head 14.4166 -2.40839 3.71655
rclavicle -5.96354e-016 9.93923e-015
rhumerus -34.5898 -17.8699 -79.3091
rradius 27.7972
rwrist 7.34857
rhand -18.2726 9.37688
rfingers 7.12502
rthumb 8.00728 -20.4514
lclavicle -5.96354e-016 9.93923e-015
lhumerus -30.5857 2.31464 83.9157
lradius 32.0844
lwrist -5.9847
lhand -17.8569 25.936
lfingers 7.12502
lthumb 8.40845 55.7486
rfemur -21.7799 -7.52596 12.5184
rtibia 64.4832
rfoot -6.18233 -3.80307
rtoes 3.82394
lfemur 2.24656 -0.285501 -29.4596
ltibia 17.4563
lfoot -9.4142 -8.83605
ltoes 6.28039
385
root 15.1715 17.8093 11.6365 114.459 83.3432 120.256
lowerback 11.7801 0.78869 -5.52749
upperback 1.5531 0.377299 -0.704396
thorax -5.00642 0.316617 2.31535
lowerneck -19.3219 -5.05731 -11.0109
upperneck 30.9842 -5.10025 6.43043
head 14.3709 -2.39792 3.6521
rclavicle 9.82742e-015 -1.23246e-014
rhumerus -35.0442 -18.1027 -79.1962
rradius 27.4908
rwrist 7.67183
rhand -18.5807 9.59592
rfingers 7.12502
rthumb 7.70991 -20.2435
lclavicle 9.82742e-015 -1.23246e-014
lhumerus -30.2004 2.05301 83.8529
lradius 32.3745
lwrist -5.67928
lhand -18.332 26.1091
lfingers 7.12502
lthumb 7.94987 55.9396
rfemur -22.3216 -7.69804 12.5279
rtibia 62.9333
rfoot -7.17556 -4.78442
rtoes 2.95121
lfemur 2.56016 -0.16862 -29.608
ltibia 17.8086
lfoot -10.059 -8.92311
ltoes 5.88575
386
root 15.3023 17.7962 11.6405 114.923 83.3426 120.674
lowerback 11.8217 0.740062 -5.67234
upperback 1.52776 0.294352 -0.602928
thorax -5.05075 0.280378 2.51668
lowerneck -19.392 -5.08112 -11.1839
upperneck 30.9473 -5.09959 6.51729
head 14.3797 -2.40707 3.71605
rclavicle 1.63997e-015 -9.54166e-015
rhumerus -35.4848 -18.4508 -78.7967
rradius 27.232
rwrist 8.30858
rhand -18.2379 9.65124
rfingers 7.12502
rthumb 8.04075 -20.1758
lclavicle 1.63997e-015 -9.54166e-015
lhumerus -29.7745 1.99138 83.8612
lradius 32.6301
lwrist -5.46196
lhand -18.6032 26.1786
lfingers 7.12502
lthumb 7.68819 56.0189
rfemur -22.8125 -7.80044 12.789
rtibia 61.2037
rfoot -7.97477 -5.80849
rtoes 2.73649
lfemur 2.90493 -0.0983988 -29.5267
ltibia 18.015
lfoot -10.705 -8.77965
ltoes 5.42269
387
root 15.4329 17.786 11.6369 115.148 83.2675 120.78
lowerback 11.7773 0.678586 -5.81077
upperback 1.49582 0.198923 -0.532976
thorax -5.05228 0.236588 2.68367
lowerneck -19.4244 -5.09683 -11.3736
upperneck 30.8858 -5.09595 6.6375
head 14.3703 -2.41248 3.79682
rclavicle 1.29459e-014 -8.74653e-015
rhumerus -35.8381 -18.4853 -78.4998
rradius 26.955
rwrist 8.79584
rhand -18.0922 9.5358
rfingers 7.12502
rthumb 8.18131 -20.2858
lclavicle 1.29459e-014 -8.74653e-015
lhumerus -29.414 1.79575 83.8942
lradius 32.9086
lwrist -5.27617
lhand -19.4208 26.0323
lfingers 7.12502
lthumb 6.89898 55.8999
rfemur -23.3381 -7.89366 12.9115
rtibia 59.3347
rfoot -8.34452 -6.70726
rtoes 1.7666
lfemur 3.19866 0.0903116 -29.5447
ltibia 18.1245
lfoot -11.1164 -9.06249
ltoes 6.0899
388
root 15.5595 17.7812 11.6314 117.176 83.1104 122.446
lowerback 11.5566 0.542452 -5.7752
upperback 1.37664 0.027361 -0.574446
thorax -5.04012 0.151275 2.64725
lowerneck -19.4765 -5.09667 -11.2188
upperneck 30.8611 -5.12538 6.56983
head 14.3656 -2.41606 3.73487
rclavicle -3.60297e-015 -9.54166e-015
rhumerus -36.2668 -18.5309 -78.4074
rradius 26.758
rwrist 9.24233
rhand -17.922 9.34016
rfingers 7.12502
rthumb 8.34562 -20.475
lclavicle -3.60297e-015 -9.54166e-015
lhumerus -29.0871 1.43336 83.9057
lradius 33.2298
lwrist -5.14228
lhand -21.112 26.3901
lfingers 7.12502
lthumb 5.26621 56.3047
rfemur -24.0313 -8.09506 13.0283
rtibia 57.3074
rfoot -8.70132 -7.63996
rtoes 2.7051
lfemur 3.28026 0.280007 -29.5216
ltibia 18.0771
lfoot -11.3205 -9.67491
ltoes 6.66495
389
root 15.6895 17.7801 11.6327 118.082 83.0042 123.011
lowerback 11.3165 0.457555 -5.83689
upperback 1.27661 -0.0848873 -0.598489
thorax -5.00217 0.0963589 2.67389
lowerneck -19.5924 -5.08903 -11.0712
upperneck 30.8545 -5.11768 6.45133
head 14.3775 -2.4114 3.65996
rclavicle 3.3048e-015 1.94809e-014
rhumerus -36.7247 -18.6795 -78.2682
rradius 26.6025
rwrist 9.74941
rhand -17.6156 9.54255
rfingers 7.12502
rthumb 8.64133 -20.2606
lclavicle 3.3048e-015 1.94809e-014
lhumerus -28.7614 1.15146 83.9073
lradius 33.6099
lwrist -4.92216
lhand -21.905 26.7613
lfingers 7.12502
lthumb 4.50047 56.6935
rfemur -24.6004 -8.01474 13.1207
rtibia 55.122
rfoot -9.23402 -8.56455
rtoes 5.14174
lfemur 3.50498 0.134515 -29.594
ltibia 17.86
lfoot -11.5845 -9.37836
ltoes 4.80625
390
root 15.8247 17.7763 11.6307 117.753 83.0084 122.68
lowerback 11.3294 0.404629 -5.87242
upperback 1.308 -0.157391 -0.577909
thorax -4.96951 0.0603132 2.72674
lowerneck -19.7179 -5.07205 -11.1195
upperneck 30.8132 -5.09568 6.53586
head 14.3884 -2.39627 3.70498
rclavicle -6.18717e-015 1.19271e-015
rhumerus -36.9993 -18.2801 -78.3552
rradius 26.4681
rwrist 9.60968
rhand -17.8056 9.55182
rfingers 7.12502
rthumb 8.45791 -20.2588
lclavicle -6.18717e-015 1.19271e-015
lhumerus -28.4172 0.951849 83.8468
lradius 33.9336
lwrist -4.5929
lhand -21.9708 26.8306
lfingers 7.12502
lthumb 4.43694 56.7641
rfemur -24.7108 -7.82488 13.1973
rtibia 52.7762
rfoot -9.49202 -9.21813
rtoes 5.30699
lfemur 4.1798 -0.0280639 -29.6777
ltibia 17.527
lfoot -11.9272 -8.84669
ltoes 2.2923
391
root 15.9587 17.7774 11.6279 117.969 83.0574 122.716
lowerback 11.2489 0.367036 -5.91021
upperback 1.24361 -0.207103 -0.483177
thorax -4.98772 0.0377824 2.85514
lowerneck -19.7087 -5.09382 -11.189
upperneck 30.7321 -5.12139 6.57869
head 14.3574 -2.41062 3.72675
rclavicle -1.24489e-014 -4.77083e-015
rhumerus -37.3541 -17.7908 -78.3516
rradius 26.3536
rwrist 9.66946
rhand -18.3808 9.33345
rfingers 7.12502
rthumb 7.90281 -20.4988
lclavicle -1.24489e-014 -4.77083e-015
lhumerus -28.1066 1.10795 83.8368
lradius 34.1393
lwrist -4.8661
lhand -21.9981 26.9472
lfingers 7.12502
lthumb 4.41063 56.8813
rfemur -24.9825 -7.68608 13.3297
rtibia 50.2997
rfoot -9.36173 -9.72377
rtoes 4.57286
lfemur 4.69805 -0.0579427 -29.6333
ltibia 17.0537
lfoot -11.8927 -8.98584
ltoes 2.7689
392
root 16.0919 17.781 11.6297 118.229 83.1247 122.739
lowerback 11.0957 0.346298 -6.02419
upperback 1.17886 -0.236706 -0.341295
thorax -4.96691 0.0257702 3.07264
lowerneck -19.6982 -5.12657 -11.2681
upperneck 30.6246 -5.11559 6.49208
head 14.3076 -2.43085 3.70075
rclavicle 2.78299e-015 1.19271e-015
rhumerus -37.758 -17.7162 -78.1058
rradius 26.3027
rwrist 10.0081
rhand -18.3646 9.27303
rfingers 7.12502
rthumb 7.91844 -20.5587
lclavicle 2.78299e-015 1.19271e-015
lhumerus -27.7925 1.23315 83.9063
lradius 34.3673
lwrist -5.24101
lhand -22.3186 26.9965
lfingers 7.12502
lthumb 4.10113 56.9368
rfemur -25.2434 -7.39482 13.4876
rtibia 47.7507
rfoot -9.11074 -10.3501
rtoes 5.52162
lfemur 5.24612 -0.194543 -29.5683
ltibia 16.4338
lfoot -11.6604 -9.10466
ltoes 4.19675
393
root 16.2264 17.7825 11.6329 117.818 83.0164 122.175
lowerback 11.017 0.274959 -6.19775
upperback 1.15029 -0.349421 -0.359956
thorax -4.94124 -0.0268364 3.16737
lowerneck -19.7955 -5.09138 -11.2629
upperneck 30.5783 -5.05756 6.48727
head 14.3009 -2.40641 3.70591
rclavicle -1.54058e-015 -5.1684e-015
rhumerus -38.1352 -17.3449 -78.2202
rradius 26.3596
rwrist 9.71555
rhand -17.9976 9.16687
rfingers 7.12502
rthumb 8.27262 -20.6512
lclavicle -1.54058e-015 -5.1684e-015
lhumerus -27.5363 1.0389 83.7988
lradius 34.7302
lwrist -5.09716
lhand -22.6505 27.1006
lfingers 7.12502
lthumb 3.78058 57.0468
rfemur -25.3634 -7.06419 13.4411
rtibia 45.1661
rfoot -8.47733 -10.9017
rtoes 6.1504
lfemur 5.93168 -0.0933445 -29.6476
ltibia 15.7301
lfoot -11.5528 -9.2574
ltoes 4.88732
